<svg width="200" height="200" viewBox="0 0 200 200" xmlns="http://www.w3.org/2000/svg">
  <defs>
    <linearGradient id="gradient1" x1="0%" y1="0%" x2="100%" y2="100%">
      <stop offset="0%" style="stop-color:#2563eb;stop-opacity:1" />
      <stop offset="100%" style="stop-color:#7c3aed;stop-opacity:1" />
    </linearGradient>
    <linearGradient id="gradient2" x1="0%" y1="0%" x2="100%" y2="0%">
      <stop offset="0%" style="stop-color:#3b82f6;stop-opacity:1" />
      <stop offset="100%" style="stop-color:#8b5cf6;stop-opacity:1" />
    </linearGradient>
  </defs>
  
  <!-- Icon: Abstract FF with AI circuit nodes - centered and scaled -->
  <g transform="translate(60, 50)">
    <!-- First F -->
    <path d="M 0 0 L 35 0 L 35 10 L 14 10 L 14 32 L 30 32 L 30 42 L 14 42 L 14 80 L 0 80 Z" fill="url(#gradient1)"/>
    
    <!-- Second F (overlapping) -->
    <path d="M 25 25 L 60 25 L 60 35 L 39 35 L 39 57 L 55 57 L 55 67 L 39 67 L 39 105 L 25 105 Z" fill="url(#gradient2)" opacity="0.85"/>
    
    <!-- AI circuit nodes -->
    <circle cx="8" cy="18" r="4" fill="#10b981"/>
    <circle cx="30" cy="48" r="4" fill="#10b981"/>
    <circle cx="47" cy="78" r="4" fill="#10b981"/>
    
    <!-- Connecting lines -->
    <line x1="8" y1="18" x2="30" y2="48" stroke="#10b981" stroke-width="2.5" opacity="0.6"/>
    <line x1="30" y1="48" x2="47" y2="78" stroke="#10b981" stroke-width="2.5" opacity="0.6"/>
  </g>
</svg>